# xmcd CD database file
#
# Track frame offsets:
#	150
#	12643
#	26452
#	38244
#	51481
#	64224
#	77047
#	91461
#	105165
#	119975
#	133749
#	147256
#	161337
#	172481
#	186517
#	200346
#	213412
#	225630
#	240286
#	254237
#	268047
#	282853
#	295707
#	308444
#	321231
#
# Disc length: 4474 seconds
#
# Revision: 1
# Processed by: cddbd v1.5.1PL0 Copyright (c) Steve Scherf et al.
# Submitted via: CDex 1.51
#
DISCID=7c117819
DTITLE=Various Artist - Texas Blues: Early Masters From the Lone Star State #B
DYEAR=2004
DGENRE=Blues
TTITLE0=Ramblin' Thomas - So Lonesome
TTITLE1=Ramblin' Thomas - Hard To Rule Woman Blues
TTITLE2=Ramblin' Thomas - Lock And Key Blues
TTITLE3=Ramblin' Thomas - Sawmill Moan
TTITLE4=Ramblin' Thomas - No Baby Blues
TTITLE5=Ramblin' Thomas - Ramblin' Mind Blues
TTITLE6=Ramblin' Thomas - No Job Blues
TTITLE7=Ramblin' Thomas - Back Gnawing Blues
TTITLE8=Ramblin' Thomas - Jig Head Blues
TTITLE9=Ramblin' Thomas - Hard Dallas Blues
TTITLE10=Ramblin' Thomas - Hard Dallas Blues (Take 4)
TTITLE11=Ramblin' Thomas - Ramblin' Man
TTITLE12=Ramblin' Thomas - Poor Boy Blues
TTITLE13=Ramblin' Thomas - Good Time Blues
TTITLE14=Ramblin' Thomas - New Way Of Living Blues
TTITLE15=Ramblin' Thomas - Ground Hog Blues
TTITLE16=Ramblin' Thomas - Shake It Gal
TTITLE17=Ramblin' Thomas - Ground Hog Blues No.2
TTITLE18=Ramblin' Thomas - Little Old Mama Blues
TTITLE19=Willie Reed - Dreaming Blues
TTITLE20=Willie Reed - Texas Blues
TTITLE21=Willie Reed - Leavin' Home
TTITLE22=Willie Reed - Goin' Back To My Baby
TTITLE23=Willie Reed - Some Low Down Groundhog Blues
TTITLE24=Willie Reed - All Worn Out And Dry Blues
EXTD=YEAR: 2004
EXTT0=
EXTT1=
EXTT2=
EXTT3=
EXTT4=
EXTT5=
EXTT6=
EXTT7=
EXTT8=
EXTT9=
EXTT10=
EXTT11=
EXTT12=
EXTT13=
EXTT14=
EXTT15=
EXTT16=
EXTT17=
EXTT18=
EXTT19=
EXTT20=
EXTT21=
EXTT22=
EXTT23=
EXTT24=
PLAYORDER=
